<svg xmlns="http://www.w3.org/2000/svg" width="208.546" height="68.271" viewBox="0 0 55.178 18.063"><g transform="translate(-76.6 -78.424)" style="display:inline"><circle r="6.598" cy="85.633" cx="83.727" style="opacity:1;vector-effect:none;fill:#f7dc1e;fill-opacity:1;stroke:none;stroke-width:.26458332;stroke-linecap:butt;stroke-linejoin:miter;stroke-miterlimit:4;stroke-dasharray:none;stroke-dashoffset:0;stroke-opacity:1;paint-order:markers stroke fill"/><rect rx=".413" ry=".413" y="92.344" x="80.831" height="1.01" width="5.653" style="opacity:1;vector-effect:none;fill:#9e9e9e;fill-opacity:1;stroke:none;stroke-width:1.99999988;stroke-linecap:butt;stroke-linejoin:miter;stroke-miterlimit:4;stroke-dasharray:none;stroke-dashoffset:0;stroke-opacity:1;paint-order:stroke fill markers"/><rect rx=".421" ry=".421" style="opacity:1;vector-effect:none;fill:#767677;fill-opacity:1;stroke:none;stroke-width:1.99999976;stroke-linecap:butt;stroke-linejoin:miter;stroke-miterlimit:4;stroke-dasharray:none;stroke-dashoffset:0;stroke-opacity:1;paint-order:stroke fill markers" width="5.641" height="1.031" x="80.837" y="93.671"/><rect rx=".417" ry=".417" y="95.019" x="82.038" height="1.02" width="3.24" style="opacity:1;vector-effect:none;fill:#616262;fill-opacity:1;stroke:none;stroke-width:1.99999988;stroke-linecap:butt;stroke-linejoin:miter;stroke-miterlimit:4;stroke-dasharray:none;stroke-dashoffset:0;stroke-opacity:1;paint-order:stroke fill markers"/></g><path style="font-style:normal;font-variant:normal;font-weight:400;font-stretch:normal;font-size:11.28888893px;line-height:1.25;font-family:Vibur;-inkscape-font-specification:'Vibur, Normal';font-variant-ligatures:normal;font-variant-caps:normal;font-variant-numeric:normal;font-feature-settings:normal;text-align:start;letter-spacing:0;word-spacing:0;writing-mode:lr-tb;text-anchor:start;vector-effect:none;fill:#1a1a1a;fill-opacity:1;stroke:#fff;stroke-width:4.00000002;stroke-linecap:butt;stroke-linejoin:miter;stroke-miterlimit:4;stroke-dasharray:none;stroke-dashoffset:0;stroke-opacity:1;paint-order:stroke markers fill" d="M189.588 7.488c-.764 0-1.272.459-1.522 1.375a7.535 7.535 0 0 0-.209 1.084l-.916 6.438c-.625 0-1.325-.013-2.103-.041h-.21c-.79 0-1.312.291-1.562.875a1.835 1.835 0 0 0-.125.687c0 .917.48 1.417 1.438 1.5h2.125c-1.097 8.806-1.647 13.41-1.647 13.813 0 .423.031.825.079 1.215-.432.063-.967.321-1.62.804-.763.556-1.347.884-1.75.98a2.446 2.446 0 0 1-.437.042c-.653 0-1.174-.417-1.563-1.25a4.12 4.12 0 0 1-.396-1.791c0-.959.216-3.411.646-7.356.14-1.333.21-2.2.21-2.603 0-1.056-.32-1.66-.96-1.813a2.562 2.562 0 0 0-.459-.04c-.916 0-1.484.692-1.707 2.081l-.043.375c-.069.598-.186 1.53-.353 2.793-.375 2.709-.563 4.527-.563 5.457 0 1.23.126 2.301.364 3.23-.802.568-1.434.897-1.885.98a2.446 2.446 0 0 1-.438.04c-2.083 0-3.651-1.221-4.707-3.666-.57-1.32-1.09-3.298-1.562-5.937 1.722-1.39 3.368-3.202 4.937-5.438 2.473-3.514 3.707-6.709 3.707-9.584 0-2.639-1.2-4.034-3.603-4.187a4.834 4.834 0 0 0-.438-.02c-2.638 0-4.68 1.972-6.125 5.916-.888 2.445-1.43 5.132-1.625 8.063-.027.347-.04.631-.04.853 0 4.306.596 7.946 1.79 10.918 1.612 3.945 4.09 5.986 7.438 6.125 1.425 0 2.749-.439 3.975-1.3.772.794 1.737 1.195 2.9 1.195 1.403 0 2.744-.443 4.021-1.332.445-.339.78-.667 1.045-.99.147.28.31.55.496.802.875 1.14 2 1.715 3.375 1.729 1.403 0 2.729-.451 3.979-1.354.253-.191.476-.382.67-.57.646 1.061 1.6 1.726 2.873 1.986.43.084.894.125 1.394.125 1.32 0 2.848-.375 4.584-1.125 1.875-.805 3-1.66 3.375-2.562.07-.195.104-.375.104-.541 0-.5-.222-.883-.666-1.147a1.133 1.133 0 0 0-.563-.166c-.319 0-.868.256-1.646.77-1.195.778-2.229 1.272-3.104 1.48-.5.111-1.007.166-1.521.166-1.167-.097-1.938-.43-2.313-1-.277-.444-.416-1.07-.416-1.875 0-.375.014-.666.041-.875.362.07.73.104 1.106.104 1.986 0 3.728-.625 5.228-1.875 1.528-1.264 2.362-2.827 2.5-4.688.014-.166.022-.325.022-.478 0-2.056-.917-3.347-2.75-3.875a6.132 6.132 0 0 0-1.606-.21c-2.069 0-3.84 1.133-5.312 3.397-1.208 1.847-1.958 3.96-2.25 6.334a14.341 14.341 0 0 0-.082 1.5c0 .618.046 1.177.113 1.71-.352.12-.748.349-1.197.706-.695.542-1.229.862-1.604.96a1.985 1.985 0 0 1-.48.062c-.639 0-1.152-.417-1.541-1.25a4.129 4.129 0 0 1-.397-1.793c0-1.014.542-5.686 1.625-14.02h2.584c.723 0 1.243-.265 1.563-.793.125-.222.187-.457.187-.707 0-.57-.242-1.001-.728-1.293a2.006 2.006 0 0 0-.98-.228h-2.188c.555-4.361.834-6.708.834-7.041 0-1.056-.32-1.66-.96-1.813a2.544 2.544 0 0 0-.456-.043zm-59.084.012c-.764 0-1.272.458-1.522 1.375a7.563 7.563 0 0 0-.207 1.084l-.918 6.437c-.625 0-1.325-.015-2.103-.042h-.21c-.79 0-1.312.291-1.562.875a1.835 1.835 0 0 0-.125.687c0 .917.48 1.417 1.438 1.5h2.125c-1.097 8.806-1.645 13.41-1.645 13.813 0 .425.029.83.077 1.222-.384.09-.77.291-1.16.611-.598.514-2.57 2.028-5.917 4.542l2.104-15.354V24a6.95 6.95 0 0 0 .021-.459c0-.972-.312-1.569-.937-1.791a1.574 1.574 0 0 0-.5-.084c-.875 0-1.396.466-1.563 1.396-.014.084-.029.175-.043.272 0 .028-.005.111-.02.25a42.115 42.115 0 0 1-.355 3.895c-.652 4.5-1.624 7.166-2.916 8a2.094 2.094 0 0 1-.959.334c-1.527-.028-2.29-1.542-2.29-4.542 0-1.388.236-3.633.708-6.73.112-.694.166-1.145.166-1.354-.027-1.069-.486-1.61-1.375-1.625-.986.098-1.673.986-2.062 2.667a32.232 32.232 0 0 0-.729 6.687c0 1.589.155 2.932.444 4.06a7.61 7.61 0 0 0-.569.378c-.777.555-1.368.883-1.771.98a2.446 2.446 0 0 1-.438.041c-.694 0-1.243-.52-1.646-1.563a13.696 13.696 0 0 0-.125-.396c-.167-.5-.25-2.16-.25-4.978 0-.848.008-1.973.021-3.375.014-.64.022-1.043.022-1.21 0-1.013-.424-1.832-1.272-2.457a3.198 3.198 0 0 0-1.896-.625c-1.958.014-3.464 1.007-4.52 2.979.07-.694.104-1.174.104-1.438 0-1.055-.32-1.66-.96-1.812a2.54 2.54 0 0 0-.456-.041c-.945 0-1.515.73-1.71 2.187 0 .084-.007.167-.02.25-.948 7.14-.846 6.453-1.422 10.823a7.137 7.137 0 0 0-.66.427c-.778.556-1.37.882-1.772.979a2.446 2.446 0 0 1-.438.041c-1.013 0-1.63-.88-1.853-2.645a9.453 9.453 0 0 1-.063-1.084c0-1 .118-3.382.354-7.146l.062-.562c.056-.556.084-.973.084-1.25 0-1.084-.375-1.667-1.125-1.75a.61.61 0 0 0-.146-.02c-.903.028-1.437.478-1.604 1.354-.014.097-.029.2-.043.312-.166 2.333-.304 3.924-.416 4.771-.736 5.112-2.056 7.674-3.959 7.688-1.472-.028-2.207-1.486-2.207-4.375 0-1.389.243-3.639.729-6.75.125-.764.187-1.258.187-1.48-.027-1.07-.535-1.612-1.521-1.625-.792 0-1.402.765-1.832 2.292-.028.125-.056.243-.084.354a31.695 31.695 0 0 0-.729 6.709c0 1.553.148 2.867.424 3.98-.457.069-.905.28-1.342.659-.432.349-2.393 1.857-5.882 4.523l2.324-16.625c-.028-1.173-.495-1.767-1.403-1.781-1.005 0-1.584.79-1.738 2.367-.014.07-.021.147-.021.23-.042.6-.95 6.755-2.723 18.467l-5.025 3.77c-.977.726-1.632 1.298-1.967 1.717-.6.81-.9 1.843-.9 3.1 0 1.2.48 2.282 1.443 3.245.977.964 2.108 1.444 3.392 1.444 2.583 0 4.196-1.229 4.838-3.686a7.02 7.02 0 0 0 .188-.941l.963-6.932c3.378-2.527 6.094-4.654 8.146-6.385.3-.255.526-.515.707-.777.57.82 1.31 1.368 2.22 1.645a5.22 5.22 0 0 0 1.419.187c2.125-.014 3.797-.77 5.02-2.27.736 1.556 1.965 2.34 3.687 2.354.917 0 1.837-.235 2.762-.686-.531 4.048-1.7 12.845-1.7 12.936 0 .708.23 1.25.688 1.625.25.194.528.291.834.291.611 0 1.119-.339 1.521-1.02.236-.402.375-.855.416-1.355.25-3.25.743-7.284 1.479-12.103.07-.514.147-1.014.23-1.5l.188-1.104c.305-1.708.985-3.807 2.04-6.293 1.223-2.861 2.23-4.424 3.022-4.687a.674.674 0 0 1 .207-.041c.32.069.487.84.5 2.312 0 .556-.013 1.215-.04 1.979-.014.527-.022.91-.022 1.146 0 4.042.744 6.66 2.23 7.854.723.569 1.603.855 2.645.855 1.278 0 2.564-.438 3.855-1.313.229-.153.424-.305.608-.457a4.02 4.02 0 0 0 1.912 1.248 5.22 5.22 0 0 0 1.418.188c1.055 0 1.985-.188 2.79-.563-.194 1.181-.381 2.397-.562 3.647-3.208 2.375-4.875 3.63-5 3.77-.972.722-1.618 1.284-1.937 1.687-.625.792-.938 1.82-.938 3.084 0 1.194.48 2.27 1.438 3.229.986.958 2.119 1.437 3.396 1.437.93 0 1.84-.292 2.729-.875 1.264-.847 2.014-2.09 2.25-3.728l.937-6.854c4.014-3.07 6.723-5.202 8.125-6.397.151-.128.278-.257.399-.386.12.212.248.419.392.615.875 1.139 2 1.717 3.375 1.73 1.403 0 2.73-.452 3.98-1.355.153-.115.271-.228.401-.342.823.965 1.999 1.486 3.537 1.551h.332c3.25 0 6.341-1.445 9.272-4.334a23.082 23.082 0 0 0 4.75-6.77c.903-.069 1.694-.272 2.375-.605-.18.722-.313 1.842-.397 3.355-.027.473-.04.923-.04 1.354 0 2.25.263 3.84.79 4.771.723 1.584 1.855 2.472 3.397 2.666.18.014.355.022.521.022 1.403 0 2.729-.453 3.979-1.355 1.042-.806 1.583-1.59 1.625-2.354 0-.361-.18-.681-.541-.959a1.118 1.118 0 0 0-.625-.207c-.417 0-1.057.284-1.918.853-.972.57-1.665.875-2.082.917-.722 0-1.285-.527-1.688-1.583-.32-.888-.48-2.063-.48-3.521 0-1.639.37-3.743 1.105-6.313.098-.347.145-.563.145-.646 0-.25-.2-.506-.604-.77a2.127 2.127 0 0 0-1.187-.355c-.347 0-.91.265-1.688.793-.694.486-1.236.82-1.625 1 .181-.722.272-1.32.272-1.793 0-1.097-.5-1.951-1.5-2.562a3.677 3.677 0 0 0-1.938-.541c-1.32 0-2.285.52-2.896 1.562a3.315 3.315 0 0 0-.46 1.688c0 1.791.73 3.09 2.188 3.896l.334.166c-1.638 2.875-3.485 5.083-5.54 6.625-1.723 1.264-3.41 1.896-5.063 1.896-1.236 0-2.056-.515-2.46-1.542a3.967 3.967 0 0 1-.228-1.375c0-.278.021-.555.063-.833.361.07.728.104 1.103.104 1.514 0 2.973-.41 4.375-1.229 2.084-1.222 3.201-2.98 3.354-5.271a6.84 6.84 0 0 0 .021-.521c0-1.542-.645-2.688-1.937-3.438-.764-.444-1.618-.666-2.563-.666-2.013 0-3.743 1.125-5.187 3.375-1.195 1.861-1.931 3.979-2.21 6.354-.069.527-.103 1.027-.103 1.5 0 .859.087 1.611.22 2.304a5.716 5.716 0 0 0-.616.426c-.695.542-1.229.86-1.604.957a1.97 1.97 0 0 1-.478.063c-.639 0-1.154-.417-1.543-1.25a4.119 4.119 0 0 1-.395-1.791c0-1.014.542-5.689 1.625-14.022h2.582c.723 0 1.243-.263 1.563-.791.125-.222.187-.459.187-.709 0-.57-.242-1-.728-1.291a1.998 1.998 0 0 0-.979-.229h-2.187c.555-4.36.832-6.71.832-7.042 0-1.056-.318-1.66-.957-1.813a2.565 2.565 0 0 0-.46-.041zm41.834 3.176c.514 0 .881.307 1.103.918.056.153.084.283.084.394 0 2.167-1.153 4.828-3.459 7.98-.833 1.154-1.666 2.154-2.5 3 .153-5.694 1.02-9.438 2.604-11.23.625-.694 1.348-1.048 2.168-1.062zm-103.44 4.33a2.849 2.849 0 0 0-2.847 2.85 2.849 2.849 0 0 0 2.847 2.847 2.849 2.849 0 0 0 2.85-2.848 2.849 2.849 0 0 0-2.85-2.85zm109.936 0a2.849 2.849 0 0 0-2.848 2.85 2.849 2.849 0 0 0 2.848 2.847 2.849 2.849 0 0 0 2.85-2.848 2.849 2.849 0 0 0-2.85-2.85zM150.67 23c.417 0 .674.188.771.563a.993.993 0 0 1 .041.271c-.013.333-.173.854-.478 1.562-.778-.347-1.174-.868-1.188-1.562 0-.417.201-.682.604-.793a.786.786 0 0 1 .25-.041zm-9.063 1.229c.556.027.89.438 1 1.23.028.153.043.299.043.437 0 1.056-.473 1.965-1.418 2.729-.888.708-1.923 1.063-3.103 1.063-.361 0-.687-.029-.979-.084.695-2.32 1.659-3.917 2.895-4.791a1 1 0 0 1 .105-.063 3.755 3.755 0 0 1 1.457-.521zm59.75.343c.681.014 1.022.556 1.022 1.625 0 1.07-.48 1.994-1.438 2.772-.86.708-1.868 1.062-3.021 1.062-.32 0-.653-.041-1-.125.722-2.375 1.717-3.987 2.98-4.834.487-.32.971-.486 1.457-.5zM114.65 46.604l-.355 2.562c-.208 1.611-.66 2.549-1.354 2.813a1.675 1.675 0 0 1-.666.125c-.652 0-1.097-.305-1.334-.916a1.943 1.943 0 0 1-.125-.688c.014-.639.522-1.347 1.522-2.125.111-.097.882-.688 2.312-1.771zm-51.156.593-.355 2.555c-.21 1.591-.649 2.535-1.319 2.828a1.91 1.91 0 0 1-.713.125c-.656 0-1.102-.308-1.34-.922a1.786 1.786 0 0 1-.124-.67c.014-.67.522-1.38 1.527-2.134l2.324-1.782z" transform="scale(.26458)"/><g style="display:inline;fill:#1a1a1a"><g style="font-style:normal;font-variant:normal;font-weight:400;font-stretch:normal;font-size:8.46666718px;line-height:1.25;font-family:Vibur;-inkscape-font-specification:'Vibur, Normal';font-variant-ligatures:normal;font-variant-caps:normal;font-variant-numeric:normal;font-feature-settings:normal;text-align:start;letter-spacing:0;word-spacing:0;writing-mode:lr-tb;text-anchor:start;fill:#1a1a1a;stroke-width:.26458335"><path d="M87.065 90.289q-.996-.041-1.475-1.216-.356-.884-.356-2.166 0-.066.008-.17.058-.872.323-1.6.43-1.173 1.215-1.173.042 0 .087.004.715.045.715.83 0 .857-.736 1.902-.467.666-.98 1.08.141.785.31 1.178.315.727.935.727.041 0 .087-.008.136-.025.38-.198.236-.162.368-.162.058 0 .112.038.12.082.12.223-.009.215-.306.442-.372.269-.807.269zm-.28-5.701q-.245.004-.43.21-.472.534-.517 2.23.248-.253.496-.596.686-.939.686-1.584 0-.033-.017-.078-.066-.182-.219-.182z" style="font-style:normal;font-variant:normal;font-weight:400;font-stretch:normal;font-size:8.46666718px;font-family:Vibur;-inkscape-font-specification:'Vibur, Normal';font-variant-ligatures:normal;font-variant-caps:normal;font-variant-numeric:normal;font-feature-settings:normal;text-align:start;writing-mode:lr-tb;text-anchor:start;fill:#1a1a1a;stroke-width:.26458335" transform="translate(-77.817 -78.872)" aria-label="l"/></g><path style="opacity:1;vector-effect:none;fill:#1a1a1a;fill-opacity:1;stroke:none;stroke-width:.26458332;stroke-linecap:butt;stroke-linejoin:miter;stroke-miterlimit:4;stroke-dasharray:none;stroke-dashoffset:0;stroke-opacity:1;paint-order:markers stroke fill" d="M84.998 83.663a.694.694 0 0 1-.694.695.694.694 0 0 1-.694-.695.694.694 0 0 1 .694-.694.694.694 0 0 1 .694.694z" transform="translate(-77.817 -78.872)"/><g style="font-style:normal;font-variant:normal;font-weight:400;font-stretch:normal;font-size:8.46666718px;line-height:1.25;font-family:Vibur;-inkscape-font-specification:'Vibur, Normal';font-variant-ligatures:normal;font-variant-caps:normal;font-variant-numeric:normal;font-feature-settings:normal;text-align:start;letter-spacing:0;word-spacing:0;writing-mode:lr-tb;text-anchor:start;fill:#1a1a1a;stroke-width:.26458335"><path d="M84.155 84.667q.269.004.277.35l-.459 3.283q1.034-.79 1.162-.893.153-.132.314-.136.058 0 .112.037.12.083.12.211-.005.199-.224.385-.607.512-1.608 1.26l-.19 1.369q-.012.095-.037.186-.19.727-.955.727-.38 0-.67-.285-.285-.285-.285-.64 0-.373.178-.612.099-.124.388-.34l.992-.744q.525-3.468.538-3.646 0-.025.004-.045.045-.467.343-.467zm-1.087 5.535.07-.504-.459.351q-.298.223-.302.422 0 .07.025.132.07.182.265.182.078 0 .14-.025.199-.087.26-.558zm.897-6.325q0-.074.037-.14.087-.162.269-.162.074 0 .144.037.158.087.158.265 0 .074-.038.145-.086.157-.264.157-.075 0-.145-.038-.161-.082-.161-.264z" style="font-style:normal;font-variant:normal;font-weight:400;font-stretch:normal;font-size:8.46666718px;font-family:Vibur;-inkscape-font-specification:'Vibur, Normal';font-variant-ligatures:normal;font-variant-caps:normal;font-variant-numeric:normal;font-feature-settings:normal;text-align:start;writing-mode:lr-tb;text-anchor:start;fill:#1a1a1a;stroke-width:.26458335" transform="translate(-77.817 -78.872)" aria-label="j"/></g></g></svg>