<svg xmlns="http://www.w3.org/2000/svg" width="68" height="68" viewBox="0 0 17.992 17.992">
  <g transform="translate(.46 .448)">
    <circle style="display:inline;opacity:1;vector-effect:none;fill:#f7dc1e;fill-opacity:1;stroke:none;stroke-width:.26458332;stroke-linecap:butt;stroke-linejoin:miter;stroke-miterlimit:4;stroke-dasharray:none;stroke-dashoffset:0;stroke-opacity:1;paint-order:markers stroke fill" cx="83.727" cy="85.633" r="6.598" transform="translate(-75.191 -79.025)"/>
    <rect style="display:inline;opacity:1;vector-effect:none;fill:#9e9e9e;fill-opacity:1;stroke:none;stroke-width:1.99999988;stroke-linecap:butt;stroke-linejoin:miter;stroke-miterlimit:4;stroke-dasharray:none;stroke-dashoffset:0;stroke-opacity:1;paint-order:stroke fill markers" width="5.653" height="1.01" x="80.831" y="92.344" ry=".413" rx=".413" transform="translate(-75.191 -79.025)"/>
    <rect y="93.671" x="80.837" height="1.031" width="5.641" style="display:inline;opacity:1;vector-effect:none;fill:#767677;fill-opacity:1;stroke:none;stroke-width:1.99999976;stroke-linecap:butt;stroke-linejoin:miter;stroke-miterlimit:4;stroke-dasharray:none;stroke-dashoffset:0;stroke-opacity:1;paint-order:stroke fill markers" ry=".421" rx=".421" transform="translate(-75.191 -79.025)"/>
    <rect style="display:inline;opacity:1;vector-effect:none;fill:#616262;fill-opacity:1;stroke:none;stroke-width:1.99999988;stroke-linecap:butt;stroke-linejoin:miter;stroke-miterlimit:4;stroke-dasharray:none;stroke-dashoffset:0;stroke-opacity:1;paint-order:stroke fill markers" width="3.24" height="1.02" x="82.038" y="95.019" ry=".417" rx=".417" transform="translate(-75.191 -79.025)"/>
    <g style="display:inline;fill:#1a1a1a">
      <g style="font-style:normal;font-variant:normal;font-weight:400;font-stretch:normal;font-size:8.46666718px;line-height:1.25;font-family:Vibur;-inkscape-font-specification:'Vibur, Normal';font-variant-ligatures:normal;font-variant-caps:normal;font-variant-numeric:normal;font-feature-settings:normal;text-align:start;letter-spacing:0;word-spacing:0;writing-mode:lr-tb;text-anchor:start;fill:#1a1a1a;stroke-width:.26458335" aria-label="l">
        <path style="font-style:normal;font-variant:normal;font-weight:400;font-stretch:normal;font-size:8.46666718px;font-family:Vibur;-inkscape-font-specification:'Vibur, Normal';font-variant-ligatures:normal;font-variant-caps:normal;font-variant-numeric:normal;font-feature-settings:normal;text-align:start;writing-mode:lr-tb;text-anchor:start;fill:#1a1a1a;stroke-width:.26458335" d="M87.065 90.289q-.996-.041-1.475-1.216-.356-.884-.356-2.166 0-.066.008-.17.058-.872.323-1.6.43-1.173 1.215-1.173.042 0 .087.004.715.045.715.83 0 .857-.736 1.902-.467.666-.98 1.08.141.785.31 1.178.315.727.935.727.041 0 .087-.008.136-.025.38-.198.236-.162.368-.162.058 0 .112.038.12.082.12.223-.009.215-.306.442-.372.269-.807.269zm-.28-5.701q-.245.004-.43.21-.472.534-.517 2.23.248-.253.496-.596.686-.939.686-1.584 0-.033-.017-.078-.066-.182-.219-.182z" transform="translate(-76.409 -79.473)"/>
      </g>
      <path d="M84.998 83.663a.694.694 0 0 1-.694.695.694.694 0 0 1-.694-.695.694.694 0 0 1 .694-.694.694.694 0 0 1 .694.694z" style="opacity:1;vector-effect:none;fill:#1a1a1a;fill-opacity:1;stroke:none;stroke-width:.26458332;stroke-linecap:butt;stroke-linejoin:miter;stroke-miterlimit:4;stroke-dasharray:none;stroke-dashoffset:0;stroke-opacity:1;paint-order:markers stroke fill" transform="translate(-76.409 -79.473)"/>
      <g style="font-style:normal;font-variant:normal;font-weight:400;font-stretch:normal;font-size:8.46666718px;line-height:1.25;font-family:Vibur;-inkscape-font-specification:'Vibur, Normal';font-variant-ligatures:normal;font-variant-caps:normal;font-variant-numeric:normal;font-feature-settings:normal;text-align:start;letter-spacing:0;word-spacing:0;writing-mode:lr-tb;text-anchor:start;fill:#1a1a1a;stroke-width:.26458335" aria-label="j">
        <path style="font-style:normal;font-variant:normal;font-weight:400;font-stretch:normal;font-size:8.46666718px;font-family:Vibur;-inkscape-font-specification:'Vibur, Normal';font-variant-ligatures:normal;font-variant-caps:normal;font-variant-numeric:normal;font-feature-settings:normal;text-align:start;writing-mode:lr-tb;text-anchor:start;fill:#1a1a1a;stroke-width:.26458335" d="M84.155 84.667q.269.004.277.35l-.459 3.283q1.034-.79 1.162-.893.153-.132.314-.136.058 0 .112.037.12.083.12.211-.005.199-.224.385-.607.512-1.608 1.26l-.19 1.369q-.012.095-.037.186-.19.727-.955.727-.38 0-.67-.285-.285-.285-.285-.64 0-.373.178-.612.099-.124.388-.34l.992-.744q.525-3.468.538-3.646 0-.025.004-.045.045-.467.343-.467zm-1.087 5.535.07-.504-.459.351q-.298.223-.302.422 0 .07.025.132.07.182.265.182.078 0 .14-.025.199-.087.26-.558zm.897-6.325q0-.074.037-.14.087-.162.269-.162.074 0 .144.037.158.087.158.265 0 .074-.038.145-.086.157-.264.157-.075 0-.145-.038-.161-.082-.161-.264z" transform="translate(-76.409 -79.473)"/>
      </g>
    </g>
  </g>
</svg>
