<?xml version="1.0" encoding="UTF-8" standalone="no"?>
<svg xmlns:dc="http://purl.org/dc/elements/1.1/" xmlns:cc="http://creativecommons.org/ns#" xmlns:rdf="http://www.w3.org/1999/02/22-rdf-syntax-ns#" xmlns:svg="http://www.w3.org/2000/svg" xmlns="http://www.w3.org/2000/svg" version="1.1" viewBox="0 0 55.177674 18.06335" height="68.270927" width="208.54555">
   <metadata>
      <rdf:RDF>
         <cc:Work rdf:about="">
            <dc:format>image/svg+xml</dc:format>
            <dc:type rdf:resource="http://purl.org/dc/dcmitype/StillImage" />
            <dc:title></dc:title>
         </cc:Work>
      </rdf:RDF>
   </metadata>
   <defs />
   <g style="display:inline" transform="translate(-76.599629,-78.424062)">
      <circle style="display:inline;opacity:1;fill:#f7dc1e;stroke:none;stroke-width:0.26458332;stroke-linecap:butt;stroke-linejoin:miter;stroke-miterlimit:4;stroke-dasharray:none;stroke-dashoffset:0;stroke-opacity:1;paint-order:markers stroke fill" cx="83.727013" cy="85.632706" r="6.5982165" transform="translate(1.9265555e-7,-1.1703128e-6)" />
      <rect style="display:inline;opacity:1;fill:#9e9e9e;stroke:none;stroke-width:1.99999988;stroke-linecap:butt;stroke-linejoin:miter;stroke-miterlimit:4;stroke-dasharray:none;stroke-dashoffset:0;stroke-opacity:1;paint-order:stroke fill markers" width="5.6534319" height="1.0099131" x="80.831047" y="92.343979" ry="0.4125087" rx="0.4125087" transform="translate(1.9265555e-7,-1.1703128e-6)" />
      <rect y="93.671165" x="80.837059" height="1.030736" width="5.6413827" style="display:inline;opacity:1;fill:#767677;stroke:none;stroke-width:1.99999976;stroke-linecap:butt;stroke-linejoin:miter;stroke-miterlimit:4;stroke-dasharray:none;stroke-dashoffset:0;stroke-opacity:1;paint-order:stroke fill markers" ry="0.42101401" rx="0.42101401" transform="translate(1.9265555e-7,-1.1703128e-6)" />
      <rect style="display:inline;opacity:1;fill:#616262;stroke:none;stroke-width:1.99999988;stroke-linecap:butt;stroke-linejoin:miter;stroke-miterlimit:4;stroke-dasharray:none;stroke-dashoffset:0;stroke-opacity:1;paint-order:stroke fill markers" width="3.2399781" height="1.0203246" x="82.037766" y="95.019188" ry="0.41676137" rx="0.41676137" transform="translate(1.9265555e-7,-1.1703128e-6)" />
      <g style="display:inline;fill:#1a1a1a" transform="translate(-1.2176335,-0.44784815)">
         <path transform="matrix(0.26458333,0,0,0.26458333,77.817262,78.87191)" d="M 24.390625 17.775391 C 23.932302 17.775391 23.593759 17.978517 23.375 18.384766 C 23.281243 18.551443 23.234375 18.728526 23.234375 18.916016 C 23.234375 19.374356 23.437501 19.707688 23.84375 19.916016 C 24.020844 20.009773 24.203135 20.056641 24.390625 20.056641 C 24.838532 20.056641 25.171866 19.858726 25.390625 19.462891 C 25.484382 19.285797 25.53125 19.103505 25.53125 18.916016 C 25.53125 18.468109 25.333332 18.134775 24.9375 17.916016 C 24.760406 17.822258 24.578115 17.775391 24.390625 17.775391 z M 33.875 19.244141 C 31.895833 19.244141 30.364584 20.723306 29.28125 23.681641 C 28.614589 25.514974 28.208339 27.530597 28.0625 29.728516 C 28.041587 29.98892 28.03125 30.202463 28.03125 30.369141 C 28.03125 30.922449 28.061589 31.440895 28.087891 31.964844 C 27.942781 32.043888 27.798521 32.136721 27.65625 32.259766 C 27.333335 32.520183 25.869793 33.645182 23.265625 35.634766 L 25 23.228516 C 24.979165 22.353429 24.630207 21.910721 23.953125 21.900391 C 23.203136 21.900391 22.770845 22.488932 22.65625 23.666016 C 22.645919 23.718123 22.640625 23.775402 22.640625 23.837891 C 22.609376 24.285807 21.932293 28.879555 20.609375 37.619141 L 16.859375 40.431641 C 16.130211 40.973307 15.640628 41.400389 15.390625 41.712891 C 14.942708 42.317056 14.71875 43.087889 14.71875 44.025391 C 14.71875 44.921224 15.078125 45.728518 15.796875 46.447266 C 16.526042 47.166016 17.369791 47.525391 18.328125 47.525391 C 20.255208 47.525391 21.458334 46.608724 21.9375 44.775391 C 22.000013 44.546213 22.046881 44.311837 22.078125 44.072266 L 22.796875 38.900391 C 25.062802 37.205627 26.869579 35.787287 28.335938 34.572266 C 28.559034 36.037986 28.899293 37.372905 29.375 38.556641 C 30.583333 41.514978 32.442707 43.046227 34.953125 43.150391 C 36.046875 43.150391 37.062501 42.811848 38 42.134766 C 38.749921 41.561847 39.135337 41.004557 39.15625 40.462891 C 39.15625 40.108719 39.00521 39.827468 38.703125 39.619141 C 38.567715 39.525383 38.427089 39.478516 38.28125 39.478516 C 37.947916 39.478516 37.484374 39.681639 36.890625 40.087891 C 36.276041 40.525376 35.796876 40.775377 35.453125 40.837891 C 35.33853 40.858804 35.229164 40.869141 35.125 40.869141 C 33.5625 40.869141 32.385417 39.952474 31.59375 38.119141 C 31.166666 37.129557 30.776042 35.645183 30.421875 33.666016 C 31.713544 32.62435 32.947917 31.264975 34.125 29.587891 C 35.979166 26.952474 36.90625 24.556639 36.90625 22.400391 C 36.90625 20.421211 36.005209 19.374336 34.203125 19.259766 C 34.08853 19.249435 33.979164 19.244141 33.875 19.244141 z M 33.890625 21.603516 C 34.276031 21.603516 34.552073 21.832682 34.71875 22.291016 C 34.760426 22.405611 34.78125 22.504565 34.78125 22.587891 C 34.78125 24.212891 33.916667 26.207682 32.1875 28.572266 C 31.5625 29.43685 30.937498 30.186849 30.3125 30.822266 C 30.427083 26.55143 31.078125 23.744139 32.265625 22.400391 C 32.734375 21.879471 33.276041 21.613846 33.890625 21.603516 z M 20.109375 40.916016 L 19.84375 42.822266 C 19.687499 44.009755 19.359376 44.712882 18.859375 44.931641 C 18.703132 44.994154 18.526046 45.025391 18.328125 45.025391 C 17.83854 45.025391 17.505208 44.796224 17.328125 44.337891 C 17.265637 44.18164 17.234375 44.014974 17.234375 43.837891 C 17.244791 43.337892 17.625001 42.80664 18.375 42.244141 L 20.109375 40.916016 z " style="fill:#1a1a1a;stroke-width:1.00000012" />
         <path d="m 84.998267,83.663261 a 0.69437253,0.69437253 0 0 1 -0.694373,0.694373 0.69437253,0.69437253 0 0 1 -0.694372,-0.694373 0.69437253,0.69437253 0 0 1 0.694372,-0.694372 0.69437253,0.69437253 0 0 1 0.694373,0.694372 z" style="opacity:1;fill:#1a1a1a;stroke:none;stroke-width:0.26458332;stroke-linecap:butt;stroke-linejoin:miter;stroke-miterlimit:4;stroke-dasharray:none;stroke-dashoffset:0;stroke-opacity:1;paint-order:markers stroke fill" />
      </g>
   </g>
   <g class="jp-icon3" style="display:inline" transform="translate(-1.4085354,0.60085189)" fill="#1a1a1a">
      <g class="jp-icon3">
         <path transform="matrix(0.26458333,0,0,0.26458333,1.4085354,-0.60085189)" d="m 189.58789,7.4882812 c -0.76388,0 -1.27148,0.4583336 -1.52148,1.375 -0.0833,0.2916687 -0.15343,0.6534307 -0.20899,1.0839844 l -0.91601,6.4375004 c -0.625,0 -1.32574,-0.01322 -2.10352,-0.04102 h -0.20898 c -0.79167,0 -1.3125,0.291665 -1.5625,0.875 -0.0833,0.20833 -0.125,0.437497 -0.125,0.6875 0,0.916674 0.47916,1.416674 1.4375,1.5 h 0.25 1.875 c -1.09723,8.805556 -1.64649,13.409723 -1.64649,13.8125 0,0.422986 0.0308,0.825127 0.0781,1.214844 -0.43166,0.06297 -0.9669,0.321545 -1.61914,0.804687 -0.76389,0.555568 -1.34723,0.88326 -1.75,0.980469 -0.15278,0.02777 -0.29862,0.04102 -0.4375,0.04102 -0.65278,0 -1.17362,-0.416667 -1.5625,-1.25 -0.26389,-0.555556 -0.39649,-1.152127 -0.39649,-1.791016 0,-0.958332 0.21593,-3.411023 0.64649,-7.355469 0.13888,-1.333334 0.20898,-2.200739 0.20898,-2.603515 0,-1.055564 -0.32009,-1.659732 -0.95898,-1.8125 -0.15279,-0.02779 -0.30622,-0.04102 -0.45899,-0.04102 -0.91667,0 -1.48482,0.693141 -1.70703,2.082031 -0.0139,0.125002 -0.0291,0.249999 -0.043,0.375 -0.0694,0.597224 -0.18684,1.52908 -0.35351,2.792969 -0.375,2.708334 -0.5625,4.526476 -0.5625,5.457031 0,1.229741 0.1252,2.301165 0.36328,3.230469 -0.80146,0.566879 -1.43345,0.896465 -1.88477,0.978516 -0.15278,0.02777 -0.29861,0.04102 -0.4375,0.04102 -2.08333,0 -3.65148,-1.221571 -4.70703,-3.666015 -0.56945,-1.319444 -1.09028,-3.298612 -1.5625,-5.9375 1.72222,-1.388891 3.36806,-3.201391 4.9375,-5.4375 2.47222,-3.51389 3.70703,-6.708986 3.70703,-9.583985 0,-2.6388987 -1.20073,-4.0347312 -3.60351,-4.1874998 -0.15278,-0.013858 -0.29862,-0.019531 -0.4375,-0.019531 -2.63889,0 -4.68056,1.9715721 -6.125,5.9160158 -0.88889,2.444444 -1.43056,5.131945 -1.625,8.0625 -0.0278,0.347232 -0.041,0.631304 -0.041,0.853515 0,4.305557 0.59657,7.945746 1.79102,10.917969 1.61111,3.944446 4.09028,5.986115 7.4375,6.125 1.42482,0 2.74865,-0.439014 3.97461,-1.300781 0.772,0.794789 1.73773,1.195312 2.90039,1.195312 1.40277,0 2.7437,-0.443142 4.02148,-1.332031 0.44507,-0.338255 0.77987,-0.667192 1.04492,-0.990234 0.14708,0.280196 0.3101,0.549901 0.4961,0.802734 0.87499,1.138918 1.99999,1.714657 3.375,1.728516 1.40277,0 2.72851,-0.450738 3.97851,-1.353516 0.25334,-0.19172 0.4765,-0.381968 0.66992,-0.570312 0.64569,1.061348 1.60101,1.726448 2.87305,1.986328 0.43056,0.08333 0.89453,0.125 1.39453,0.125 1.31945,0 2.84788,-0.374998 4.58399,-1.125 1.87499,-0.805556 3,-1.659725 3.375,-2.5625 0.0694,-0.194434 0.10351,-0.374339 0.10351,-0.541016 0,-0.500001 -0.22157,-0.882595 -0.66601,-1.146484 -0.19444,-0.111118 -0.38194,-0.166016 -0.5625,-0.166016 -0.31945,0 -0.86871,0.255641 -1.64649,0.769531 -1.19444,0.777782 -2.22851,1.272141 -3.10351,1.480469 -0.5,0.111118 -1.0076,0.166016 -1.52149,0.166016 -1.16667,-0.09722 -1.9375,-0.430554 -2.3125,-1 -0.27778,-0.444445 -0.41601,-1.069447 -0.41601,-1.875 0,-0.375008 0.0132,-0.666673 0.041,-0.875 0.36111,0.06944 0.73047,0.103515 1.10547,0.103515 1.98611,0 3.72851,-0.624999 5.22852,-1.875 1.52778,-1.263889 2.36111,-2.82639 2.5,-4.6875 0.0139,-0.166677 0.0215,-0.325747 0.0215,-0.478515 0,-2.055554 -0.91667,-3.347222 -2.75,-3.875 -0.51389,-0.138885 -1.04991,-0.208985 -1.60547,-0.208985 -2.06944,0 -3.84028,1.132595 -5.3125,3.396485 -1.20833,1.847224 -1.95833,3.958984 -2.25,6.333984 -0.0556,0.527776 -0.082,1.027776 -0.082,1.5 0,0.618182 0.0461,1.176768 0.11328,1.708984 -0.35233,0.121567 -0.74816,0.349583 -1.19726,0.707032 -0.69445,0.541679 -1.22852,0.861775 -1.60352,0.958984 -0.16668,0.04168 -0.3277,0.0625 -0.48047,0.0625 -0.63889,0 -1.15213,-0.416667 -1.54101,-1.25 -0.26389,-0.555555 -0.39649,-1.15408 -0.39649,-1.792969 0,-1.013891 0.54167,-5.686199 1.625,-14.019531 h 2.58399 c 0.72222,0 1.24305,-0.26519 1.5625,-0.792969 0.125,-0.222218 0.1875,-0.457028 0.1875,-0.707031 0,-0.569446 -0.24241,-1.001303 -0.72852,-1.292969 -0.27778,-0.152768 -0.60547,-0.228515 -0.98047,-0.228515 h -2.1875 c 0.55556,-4.361112 0.83399,-6.7076816 0.83399,-7.0410158 0,-1.0555641 -0.3201,-1.6597315 -0.95899,-1.8125 -0.15278,-0.027792 -0.30426,-0.042969 -0.45703,-0.04297 z M 130.50391,7.5 c -0.76389,0 -1.27148,0.4583335 -1.52149,1.375 -0.0833,0.2916661 -0.15147,0.6534282 -0.20703,1.0839844 l -0.91797,6.4374996 c -0.625,0 -1.32573,-0.0152 -2.10351,-0.04297 h -0.20899 c -0.79166,0 -1.31249,0.291667 -1.5625,0.875 -0.0833,0.20833 -0.125,0.437496 -0.125,0.6875 0,0.916674 0.47917,1.416674 1.4375,1.5 h 0.25 1.875 c -1.09722,8.805556 -1.64453,13.40972 -1.64453,13.8125 0,0.425692 0.0282,0.830661 0.0762,1.222656 -0.38327,0.08942 -0.76966,0.290927 -1.16015,0.611328 -0.59723,0.51389 -2.5688,2.027128 -5.91602,4.541016 L 120.87891,24.25 V 24 c 0.0138,-0.194439 0.0215,-0.347866 0.0215,-0.458984 0,-0.972208 -0.3125,-1.56878 -0.9375,-1.791016 -0.16666,-0.05556 -0.33332,-0.08398 -0.5,-0.08398 -0.87499,0 -1.39582,0.465929 -1.5625,1.396484 -0.0139,0.08335 -0.0291,0.174275 -0.043,0.271484 0,0.02779 -0.006,0.111115 -0.0195,0.25 -0.0694,1.430557 -0.18879,2.727867 -0.35547,3.894532 -0.65278,4.500001 -1.62435,7.166667 -2.91601,8 -0.30556,0.194444 -0.62565,0.306217 -0.95899,0.333984 -1.52778,-0.02778 -2.29101,-1.541016 -2.29101,-4.541016 0,-1.388888 0.23676,-3.633246 0.70898,-6.730468 0.11112,-0.694451 0.16602,-1.145188 0.16602,-1.353516 -0.0278,-1.069475 -0.48611,-1.611142 -1.375,-1.625 -0.98612,0.09722 -1.67362,0.985459 -2.0625,2.666016 -0.47226,2.166664 -0.71466,4.395831 -0.72852,6.6875 0,1.588923 0.15476,2.931738 0.44336,4.060546 -0.17978,0.107688 -0.36745,0.230835 -0.56836,0.376954 -0.77778,0.555542 -1.3687,0.883234 -1.77148,0.980468 -0.15278,0.02777 -0.29862,0.04102 -0.4375,0.04102 -0.69445,0 -1.24371,-0.520832 -1.64649,-1.5625 -0.0417,-0.138888 -0.0833,-0.271483 -0.125,-0.396484 -0.16668,-0.499999 -0.25,-2.159072 -0.25,-4.978516 0,-0.847224 0.008,-1.972223 0.0215,-3.375 0.0138,-0.638879 0.0215,-1.042307 0.0215,-1.208984 0,-1.013889 -0.42426,-1.832031 -1.27148,-2.457032 -0.58334,-0.416665 -1.21593,-0.625 -1.89649,-0.625 -1.95833,0.01389 -3.463973,1.006296 -4.519529,2.978516 0.06944,-0.694443 0.103515,-1.173611 0.103515,-1.4375 0,-1.055564 -0.320095,-1.659731 -0.958984,-1.8125 -0.152789,-0.02779 -0.304263,-0.04102 -0.457031,-0.04102 -0.944444,0 -1.514541,0.729167 -1.708985,2.1875 0,0.08335 -0.0076,0.166674 -0.02148,0.25 -0.947489,7.138837 -0.845863,6.452423 -1.421875,10.822266 -0.207461,0.118841 -0.423325,0.255493 -0.660156,0.427734 -0.777777,0.555543 -1.368706,0.881281 -1.771485,0.978516 -0.152781,0.02777 -0.298615,0.04102 -0.4375,0.04102 -1.013898,0 -1.631304,-0.880644 -1.853515,-2.644532 -0.04168,-0.361111 -0.0625,-0.722873 -0.0625,-1.083984 0,-1 0.117396,-3.382594 0.353515,-7.146484 0.01391,-0.124997 0.03473,-0.312497 0.0625,-0.5625 0.05556,-0.555556 0.08398,-0.972223 0.08398,-1.25 0,-1.083341 -0.375001,-1.666674 -1.125,-1.75 -0.05556,-0.01386 -0.104809,-0.01953 -0.146485,-0.01953 -0.902765,0.02778 -1.436838,0.478515 -1.603515,1.353516 -0.01393,0.09721 -0.02911,0.201382 -0.04297,0.3125 -0.16666,2.333334 -0.304898,3.924263 -0.416016,4.771484 -0.736111,5.111144 -2.056206,7.673642 -3.958984,7.6875 -1.472222,-0.02778 -2.207031,-1.486113 -2.207031,-4.375 0,-1.38889 0.242405,-3.638889 0.728515,-6.75 0.125002,-0.7639 0.1875,-1.258257 0.1875,-1.480468 -0.02778,-1.069476 -0.535373,-1.611142 -1.521484,-1.625 -0.791668,0 -1.401475,0.76519 -1.832031,2.292968 -0.02779,0.125002 -0.05622,0.242398 -0.08398,0.353516 -0.486113,2.249998 -0.728515,4.486761 -0.728515,6.708984 0,1.553419 0.147979,2.866833 0.423828,3.980469 -0.45699,0.06816 -0.904793,0.280253 -1.341797,0.658203 -0.432741,0.348984 -2.392981,1.857205 -5.882813,4.523438 l 2.324219,-16.625 c -0.02792,-1.172687 -0.494987,-1.767392 -1.402344,-1.78125 -1.005074,0 -1.584731,0.789781 -1.738281,2.367187 -0.01386,0.0698 -0.02148,0.146715 -0.02148,0.230469 -0.04188,0.600252 -0.949821,6.754918 -2.722657,18.466797 l -5.02539,3.769531 c -0.977154,0.725886 -1.631775,1.298018 -1.966797,1.716797 -0.600252,0.809643 -0.900391,1.843269 -0.900391,3.099609 0,1.200502 0.480165,2.282899 1.44336,3.246094 0.977151,0.963193 2.10832,1.44336 3.392578,1.44336 2.582478,0 4.195761,-1.228706 4.83789,-3.685547 0.08375,-0.307107 0.145623,-0.620343 0.1875,-0.941407 l 0.962891,-6.93164 c 3.378157,-2.52664 6.094463,-4.653808 8.146485,-6.384766 0.300597,-0.25519 0.526262,-0.515243 0.707031,-0.777344 0.569661,0.820964 1.309244,1.36849 2.220703,1.644532 0.444445,0.125001 0.91797,0.1875 1.417969,0.1875 2.125001,-0.01389 3.79731,-0.76953 5.019531,-2.269532 0.736111,1.555588 1.965278,2.339658 3.6875,2.353516 0.916996,0 1.837569,-0.234904 2.761719,-0.685547 -0.530716,4.047086 -1.699219,12.844426 -1.699219,12.935547 0,0.708331 0.229167,1.25 0.6875,1.625 0.250001,0.194444 0.52843,0.291016 0.833984,0.291016 0.611112,0 1.118708,-0.338975 1.521485,-1.019532 0.236102,-0.402776 0.37434,-0.855467 0.416015,-1.355468 0.250001,-3.250001 0.742405,-7.284072 1.478516,-12.103516 0.06944,-0.513887 0.147143,-1.013887 0.230469,-1.5 l 0.1875,-1.103516 c 0.305557,-1.708331 0.985461,-3.806856 2.041015,-6.292968 1.222224,-2.86111 2.22982,-4.423611 3.021485,-4.6875 0.08333,-0.02779 0.151472,-0.04102 0.207031,-0.04102 0.319481,0.06945 0.486141,0.840278 0.500001,2.3125 0,0.555558 -0.0132,1.214628 -0.041,1.978516 -0.0139,0.527768 -0.0215,0.910364 -0.0215,1.146484 0,4.041668 0.74436,6.659072 2.23047,7.853516 0.72222,0.569443 1.60287,0.855468 2.64453,0.855468 1.27778,0 2.5638,-0.437501 3.85547,-1.3125 0.22864,-0.15343 0.42374,-0.305555 0.60742,-0.457031 0.52052,0.602713 1.15699,1.019353 1.91211,1.248047 0.44445,0.125002 0.91797,0.1875 1.41797,0.1875 1.05556,0 1.98546,-0.1875 2.79102,-0.5625 -0.19444,1.180556 -0.38194,2.396486 -0.5625,3.646484 -3.20834,2.375005 -4.875,3.630647 -5,3.769532 -0.97223,0.722222 -1.61806,1.284723 -1.9375,1.6875 -0.625,0.791667 -0.9375,1.820095 -0.9375,3.083984 0,1.194444 0.47916,2.270181 1.4375,3.228516 0.98611,0.958332 2.1187,1.4375 3.39648,1.4375 0.93056,0 1.83963,-0.291668 2.72852,-0.875 1.26388,-0.847222 2.01388,-2.089627 2.25,-3.728516 l 0.9375,-6.853516 c 4.01388,-3.069445 6.72222,-5.20204 8.125,-6.396484 0.15106,-0.128676 0.27724,-0.25748 0.39843,-0.386719 0.12081,0.212475 0.24838,0.419209 0.39258,0.615235 0.875,1.13892 2,1.71661 3.375,1.730468 1.40278,0 2.73047,-0.45269 3.98047,-1.355468 0.15184,-0.11491 0.27007,-0.2281 0.40039,-0.341797 0.82246,0.96465 1.99827,1.486125 3.53711,1.550781 h 0.33203 c 3.25,0 6.34093,-1.445095 9.27149,-4.333984 1.97222,-1.944446 3.55555,-4.200088 4.75,-6.769532 0.90277,-0.06945 1.69444,-0.272137 2.375,-0.605468 -0.18057,0.722222 -0.31316,1.841581 -0.39649,3.355468 -0.0278,0.472225 -0.041,0.922962 -0.041,1.353516 0,2.250001 0.26323,3.840929 0.79101,4.771484 0.72222,1.583335 1.85482,2.471572 3.39649,2.666016 0.18054,0.01386 0.3548,0.02148 0.52148,0.02148 1.40278,0 2.72852,-0.45269 3.97852,-1.355468 1.04165,-0.805556 1.58332,-1.589628 1.625,-2.353516 0,-0.361111 -0.17991,-0.681207 -0.54102,-0.958984 -0.20834,-0.138885 -0.41667,-0.207032 -0.625,-0.207032 -0.41666,0 -1.05686,0.284072 -1.91797,0.853516 -0.97222,0.569436 -1.66536,0.87434 -2.08203,0.916016 -0.72222,0 -1.28472,-0.526478 -1.6875,-1.582032 -0.31945,-0.888889 -0.48047,-2.063151 -0.48047,-3.521484 0,-1.638889 0.36936,-3.743054 1.10547,-6.3125 0.0972,-0.347228 0.14453,-0.563158 0.14453,-0.646484 0,-0.250001 -0.20074,-0.505642 -0.60351,-0.769532 -0.36111,-0.236119 -0.75695,-0.355468 -1.1875,-0.355468 -0.34723,0 -0.90973,0.26519 -1.6875,0.792968 -0.69445,0.486108 -1.23612,0.81944 -1.625,1 0.18056,-0.722222 0.27148,-1.320744 0.27148,-1.792968 0,-1.097222 -0.5,-1.951391 -1.5,-2.5625 -0.59722,-0.361112 -1.24306,-0.541016 -1.9375,-0.541016 -1.31945,0 -2.28537,0.520834 -2.89648,1.5625 -0.30556,0.527778 -0.45899,1.090277 -0.45899,1.6875 0,1.791665 0.72917,3.090928 2.1875,3.896484 0.11109,0.05556 0.22287,0.110457 0.33399,0.166016 -1.63889,2.875001 -3.48546,5.083333 -5.54102,6.625 -1.72222,1.263889 -3.40972,1.896484 -5.0625,1.896484 -1.23611,0 -2.05621,-0.515191 -2.45898,-1.542968 -0.15277,-0.416668 -0.22852,-0.874999 -0.22852,-1.375 0,-0.277778 0.0208,-0.554254 0.0625,-0.832032 0.36111,0.06944 0.72852,0.103516 1.10352,0.103516 1.51388,0 2.97222,-0.409071 4.375,-1.228516 2.08334,-1.222221 3.20074,-2.979815 3.35351,-5.271484 0.0139,-0.180568 0.0215,-0.354832 0.0215,-0.521484 0,-1.541667 -0.64584,-2.687498 -1.9375,-3.4375 C 142.74002,21.721573 141.88585,21.5 140.94141,21.5 c -2.01389,0 -3.74306,1.125002 -5.1875,3.375 -1.19445,1.861112 -1.93121,3.978516 -2.20899,6.353516 -0.0694,0.527778 -0.10351,1.027778 -0.10351,1.5 0,0.859186 0.0863,1.611942 0.21875,2.304687 -0.19487,0.117811 -0.39765,0.252603 -0.61524,0.425781 -0.69444,0.54168 -1.22851,0.859822 -1.60351,0.957032 -0.16668,0.04167 -0.32575,0.0625 -0.47852,0.0625 -0.63889,0 -1.15408,-0.416667 -1.54297,-1.25 -0.26389,-0.555556 -0.39453,-1.152127 -0.39453,-1.791016 0,-1.013889 0.54167,-5.68815 1.625,-14.021484 h 2.58203 c 0.72222,0 1.24306,-0.263238 1.5625,-0.791016 0.125,-0.222219 0.1875,-0.458981 0.1875,-0.708984 0,-0.569444 -0.2424,-0.99935 -0.72851,-1.291016 -0.27778,-0.152769 -0.60352,-0.228516 -0.97852,-0.228516 h -2.1875 c 0.55556,-4.361111 0.83203,-6.7096342 0.83203,-7.0429684 0,-1.0555641 -0.31814,-1.6597315 -0.95703,-1.8125 C 130.8101,7.5132487 130.65667,7.5 130.50391,7.5 Z m 41.83398,3.175781 c 0.5139,0 0.88131,0.30686 1.10352,0.917969 0.0556,0.152771 0.084,0.283413 0.084,0.394531 0,2.166667 -1.15343,4.82769 -3.45898,7.980469 -0.83334,1.152779 -1.66667,2.152779 -2.5,3 0.15277,-5.694445 1.02018,-9.438804 2.60351,-11.230469 0.625,-0.694475 1.34853,-1.048641 2.16797,-1.0625 z M 68.898438,15.005859 a 2.8487273,2.8487273 0 0 0 -2.847657,2.84961 2.8487273,2.8487273 0 0 0 2.847657,2.847656 2.8487273,2.8487273 0 0 0 2.849609,-2.847656 2.8487273,2.8487273 0 0 0 -2.849609,-2.84961 z m 109.935542,0 a 2.8487273,2.8487273 0 0 0 -2.84765,2.84961 2.8487273,2.8487273 0 0 0 2.84765,2.847656 2.8487273,2.8487273 0 0 0 2.84961,-2.847656 2.8487273,2.8487273 0 0 0 -2.84961,-2.84961 z M 150.66992,23 c 0.41665,0 0.67425,0.1875 0.77149,0.5625 0.0278,0.09724 0.041,0.188158 0.041,0.271484 -0.0139,0.333332 -0.17296,0.854167 -0.47851,1.5625 -0.77781,-0.347222 -1.17365,-0.868057 -1.1875,-1.5625 0,-0.41666 0.20074,-0.68185 0.60351,-0.792968 0.0833,-0.02777 0.16668,-0.04102 0.25,-0.04102 z m -9.0625,1.228516 c 0.55555,0.02778 0.88888,0.438801 1,1.230468 0.0278,0.152781 0.043,0.298615 0.043,0.4375 0,1.055554 -0.47352,1.964626 -1.41797,2.728516 -0.88889,0.708334 -1.92296,1.0625 -3.10351,1.0625 -0.36111,0 -0.68685,-0.02842 -0.97852,-0.08398 0.69444,-2.319446 1.65842,-3.916018 2.89453,-4.791016 0.0417,-0.02782 0.0777,-0.04864 0.10547,-0.0625 0.45833,-0.277778 0.94314,-0.452042 1.45703,-0.521484 z m 59.75,0.34375 c 0.68056,0.01389 1.02149,0.555555 1.02149,1.625 0,1.069442 -0.47917,1.993705 -1.4375,2.771484 -0.86111,0.708334 -1.86871,1.0625 -3.02149,1.0625 -0.31944,0 -0.65278,-0.04167 -1,-0.125 0.72222,-2.375 1.71658,-3.98676 2.98047,-4.833984 0.48611,-0.319474 0.97092,-0.486142 1.45703,-0.5 z m -86.70703,22.03125 -0.35547,2.5625 c -0.20833,1.611111 -0.65907,2.54861 -1.35351,2.8125 -0.19444,0.08333 -0.41602,0.125 -0.66602,0.125 -0.65277,0 -1.09786,-0.304904 -1.33398,-0.916016 -0.0833,-0.222214 -0.125,-0.45138 -0.125,-0.6875 0.0139,-0.638889 0.52148,-1.347224 1.52148,-2.125 0.11111,-0.09722 0.88194,-0.688151 2.3125,-1.771484 z m -51.156249,0.59375 -0.355469,2.554687 c -0.209391,1.591365 -0.648312,2.53498 -1.31836,2.828125 -0.20939,0.08375 -0.447663,0.125 -0.71289,0.125 -0.656093,0 -1.10254,-0.307664 -1.339844,-0.921875 -0.08375,-0.209396 -0.125,-0.432618 -0.125,-0.669922 0.01396,-0.670047 0.522272,-1.380961 1.527344,-2.134765 z" style="stroke:none;stroke-width:4;stroke-linecap:butt;stroke-linejoin:miter;stroke-miterlimit:4;stroke-dasharray:none;stroke-dashoffset:0;stroke-opacity:1;paint-order:stroke markers fill" />
      </g>
   </g>
</svg>
